<svg xmlns="http://www.w3.org/2000/svg" viewBox="0 0 245 240">
  <path fill="#36C5F0" d="M61.39 129.95c0-12.12-9.83-21.95-21.95-21.95S17.49 117.83 17.49 129.95 27.32 151.89 39.44 151.89h21.95V129.95zm10.97-21.95h21.95v43.9c0 12.12-9.83 21.95-21.95 21.95S50.41 165.97 50.41 153.85v-43.9zm10.97 55.04h21.95c12.12 0 21.95 9.83 21.95 21.95s-9.83 21.95-21.95 21.95-21.95-9.83-21.95-21.95v-21.95zm10.97-10.97v-21.95c0-12.12 9.83-21.95 21.95-21.95s21.95 9.83 21.95 21.95v21.95h-43.9zm55.04 10.97h21.95c12.12 0 21.95-9.83 21.95-21.95s-9.83-21.95-21.95-21.95h-21.95v43.9zm10.97-43.9v-21.95c0-12.12-9.83-21.95-21.95-21.95s-21.95 9.83-21.95 21.95v21.95h43.9zm-55.04-10.97h-21.95c-12.12 0-21.95 9.83-21.95 21.95s9.83 21.95 21.95 21.95h21.95v-43.9zm-10.97 43.9v21.95c0 12.12 9.83 21.95 21.95 21.95s21.95-9.83 21.95-21.95v-21.95h-43.9z" />
</svg>
